<?xml version="1.0" encoding="UTF-8" standalone="no"?>
<!-- Sure Cuts A Lot -->

<svg
   xmlns:scal="http://www.craftedge.com/namespaces/surecutsalot"
   xmlns:dc="http://purl.org/dc/elements/1.1/"
   xmlns:cc="http://creativecommons.org/ns#"
   xmlns:rdf="http://www.w3.org/1999/02/22-rdf-syntax-ns#"
   xmlns:svg="http://www.w3.org/2000/svg"
   xmlns="http://www.w3.org/2000/svg"
   xmlns:sodipodi="http://sodipodi.sourceforge.net/DTD/sodipodi-0.dtd"
   xmlns:inkscape="http://www.inkscape.org/namespaces/inkscape"
   version="1.1"
   scal:dpi="72"
   x="0px"
   y="0px"
   width="613.7085"
   height="768.90149"
   viewbox="0 0 864 864"
   xml:space="preserve"
   id="svg2"
   inkscape:version="0.48.5 r10040"
   sodipodi:docname="game_of_thrones_house_lannister__.svg"><metadata
     id="metadata10"><rdf:RDF><cc:Work
         rdf:about=""><dc:format>image/svg+xml</dc:format><dc:type
           rdf:resource="http://purl.org/dc/dcmitype/StillImage" /></cc:Work></rdf:RDF></metadata><defs
     id="defs8" /><sodipodi:namedview
     pagecolor="#ffffff"
     bordercolor="#666666"
     borderopacity="1"
     objecttolerance="10"
     gridtolerance="10"
     guidetolerance="10"
     inkscape:pageopacity="0"
     inkscape:pageshadow="2"
     inkscape:window-width="640"
     inkscape:window-height="480"
     id="namedview6"
     showgrid="false"
     inkscape:zoom="0.27314815"
     inkscape:cx="406.3227"
     inkscape:cy="390.93649"
     inkscape:window-x="0"
     inkscape:window-y="0"
     inkscape:window-maximized="0"
     inkscape:current-layer="svg2" /><g
     id="Game-of-Thrones-House-Lannister-Sigil-Stencil-791x1024.jpg"
     transform="translate(-25.6773,-54.034975)"><path
       id="Game-of-Thrones-House-Lannister-Sigil-Stencil-791x1024.jpg (1)"
       style="fill:#000000;stroke:#000000"
       d="m 340.004,821.859 c -2.135,-0.564 -4.37,-3.97 -5.258,-8.011 -2.019,-9.195 -13.569,-11.59 -13.569,-2.814 0,5.082 -3.123,6.468 -6.643,2.948 -2.516,-2.516 -2.602,-2.959 -2.006,-10.289 0.904,-11.122 -2.659,-17.143 -5.757,-9.728 -1.547,3.701 -4.111,4.651 -6.394,2.369 -1.96,-1.961 -1.382,-5.157 1.692,-9.353 1.59,-2.171 3.351,-5.622 3.911,-7.668 0.561,-2.047 1.989,-5.083 3.174,-6.746 2.621,-3.681 13.541,-11.623 17.268,-12.558 1.488,-0.374 4.631,-2.321 6.983,-4.327 5.47,-4.666 10.435,-8.148 11.617,-8.148 0.509,0 4.339,-3.619 8.513,-8.042 5.507,-5.837 7.892,-9.195 8.699,-12.25 0.611,-2.314 1.804,-5.642 2.651,-7.395 2.829,-5.856 -0.143,-26.313 -3.823,-26.313 -0.584,0 -2.971,-1.912 -5.302,-4.25 -2.331,-2.337 -7.722,-7.4 -11.979,-11.25 -8.783,-7.943 -9.303,-8.463 -14.106,-14.121 -1.924,-2.267 -3.498,-4.884 -3.498,-5.816 0,-2.686 -1.92,-5.563 -3.714,-5.563 -0.904,0 -3.09,1.463 -4.857,3.25 -1.768,1.788 -5.625,5.446 -8.571,8.13 -2.947,2.685 -6.768,6.21 -8.492,7.835 -3.931,3.705 -7.718,3.556 -8.168,-0.321 -0.167,-1.433 0.798,-5.033 2.142,-8 3.112,-6.865 4.446,-20.078 2.556,-25.307 -1.075,-2.972 -1.062,-4.23 0.075,-7.337 2.206,-6.029 2.381,-11.784 0.446,-14.737 -1.498,-2.286 -1.547,-3.117 -0.405,-6.808 0.716,-2.313 1.449,-9.155 1.63,-15.205 0.377,-12.645 0.288,-12.359 9.642,-31.197 6.022,-12.131 6.856,-14.429 5.728,-15.788 -0.746,-0.9 -2.447,-1.461 -3.916,-1.292 -3.695,0.425 -9.556,4.297 -10.87,7.181 -0.725,1.591 -2.103,2.566 -3.922,2.774 -2.415,0.277 -3.052,1.072 -4.596,5.727 -3.946,11.901 -8.889,14.449 -11.382,5.868 -1.451,-4.995 -3.909,-7.117 -7.627,-6.583 -2.98,0.429 -2.567,3.369 1.373,9.771 l 3.111,5.058 -0.841,10.661 c -0.831,10.528 -0.877,10.673 -3.679,11.603 -2.136,0.709 -3.807,0.505 -6.76,-0.827 -5.494,-2.477 -5.886,-1.222 -0.589,1.882 7.905,4.633 14.375,10.411 17.085,15.259 2.65,4.743 3.936,12.483 2.865,17.247 -0.481,2.136 -0.899,2.288 -4.734,1.713 l -4.206,-0.631 -3.412,5.722 c -2.718,4.558 -4.759,6.524 -10.036,9.662 -4.546,2.703 -7.129,4.998 -8.234,7.315 -1.74,3.649 -4.525,4.426 -6.657,1.857 -0.899,-1.083 -1.113,-4.093 -0.748,-10.5 0.29,-5.081 0.118,-8.982 -0.394,-8.982 -0.499,0 -2.458,0.648 -4.353,1.44 -4.052,1.693 -6.911,5.978 -8.552,12.818 -1.656,6.903 -4.981,12.399 -11.141,18.412 -3.57,3.485 -6.677,5.534 -9.53,6.284 -2.328,0.613 -4.688,1.966 -5.246,3.007 -1.474,2.754 -11.573,6.349 -14.075,5.01 -2.681,-1.435 -2.482,-2.128 1.668,-5.802 3.532,-3.127 3.598,-3.32 2.941,-8.576 -0.486,-3.892 -0.237,-6.416 0.9,-9.139 0.864,-2.068 1.39,-3.943 1.168,-4.164 -1.114,-1.115 -9.608,4.437 -13.123,8.577 -5.574,6.567 -11.306,11.133 -13.973,11.133 -2.89,0 -7.527,3.623 -7.527,5.881 0,2.968 -2.439,5.432 -4.674,4.722 -2.525,-0.801 -4.326,-4.624 -4.326,-9.182 0,-5.31 -2.441,-10.243 -5.441,-10.996 -2.998,-0.752 -7.089,1.521 -8.021,4.456 -0.965,3.04 -3.764,3.558 -5.779,1.069 -2.208,-2.726 -2.237,-5.955 -0.087,-9.701 0.999,-1.74 1.384,-3.661 0.957,-4.774 -0.631,-1.644 -0.943,-1.488 -2.657,1.331 -2.35,3.864 -5.552,4.209 -7.12,0.768 -1.621,-3.558 -0.377,-6.916 4.663,-12.591 2.467,-2.777 4.485,-5.651 4.485,-6.386 0,-2.485 8,-11.402 13.51,-15.059 7.334,-4.869 16.477,-8.096 29.74,-10.497 19.615,-3.551 23.711,-4.904 26.823,-8.86 2.357,-2.997 2.437,-6.278 0.291,-11.898 -1.863,-4.88 -3.71,-5.383 -6.542,-1.783 -2.124,2.7 -5.009,3.253 -6.519,1.25 -1.509,-2.001 -3.164,-8.747 -3.81,-15.523 -0.493,-5.179 -0.147,-7.578 1.982,-13.747 2.402,-6.96 2.475,-7.677 1.053,-10.427 -0.84,-1.625 -1.528,-3.876 -1.528,-5.003 0,-2.679 -1.831,-2.598 -10.5,0.467 -10.994,3.886 -18.5,3.059 -18.5,-2.04 0,-1.774 1.108,-3.151 4.006,-4.98 4.022,-2.54 9.994,-9.728 9.994,-12.03 0,-0.678 -2.079,-2.748 -4.621,-4.6 -7.078,-5.158 -9.548,-7.75 -9.184,-9.64 0.283,-1.468 1.635,-1.742 9.002,-1.83 7.913,-0.094 9.09,-0.374 13.486,-3.213 2.65,-1.711 7.541,-5.94 10.871,-9.397 3.329,-3.458 9.629,-8.723 14,-11.701 4.37,-2.978 8.106,-5.82 8.302,-6.317 0.196,-0.497 1.321,-1.97 2.5,-3.274 1.885,-2.084 3.241,-2.423 11.22,-2.804 9.866,-0.472 12.243,-1.298 15.131,-5.263 2.123,-2.914 1.565,-2.852 22.793,-2.506 7.15,0.117 14.125,0.634 15.5,1.149 1.375,0.515 6.55,1.558 11.5,2.317 8.602,1.319 9.509,1.714 20.5,8.914 17.316,11.344 18.184,11.842 19.662,11.274 3.162,-1.213 0.316,-8.953 -12.899,-35.076 -1.842,-3.641 -10.662,-13.631 -16.677,-18.889 -10.934,-9.558 -28.05,-26.371 -43.086,-42.322 -3.575,-3.793 -8.75,-10.769 -11.5,-15.502 -4.959,-8.535 -5.038,-8.611 -9.699,-9.283 -5.578,-0.804 -7.277,-2.467 -6.387,-6.248 1.214,-5.152 1.125,-5.756 -0.847,-5.756 -1.229,0 -2.685,1.425 -4,3.912 -2.962,5.607 -4.911,6.553 -7.836,3.805 -3.005,-2.824 -8.251,-2.982 -9.69,-0.294 -0.566,1.058 -1.531,4.32 -2.144,7.25 -1.985,9.48 -7.233,12.541 -15.347,8.952 -5.28,-2.335 -5.841,-4.563 -2.05,-8.125 2.785,-2.616 3.255,-6.586 1.124,-9.5 -1.204,-1.647 -1.984,-1.764 -6.25,-0.941 -4.163,0.804 -4.917,1.308 -5.168,3.462 -0.204,1.748 0.639,3.414 2.75,5.437 5.276,5.054 2.867,9.499 -4.071,7.509 -1.854,-0.532 -4.847,-0.967 -6.65,-0.967 -2.396,0 -4.418,-1.029 -7.507,-3.821 -8.163,-7.377 -14.782,-10.086 -16.121,-6.597 -1.28,3.336 -0.589,8.124 1.437,9.958 2.845,2.574 2.136,5.635 -1.544,6.666 -5.876,1.646 -16.125,-1.863 -17.129,-5.865 -1.108,-4.416 -3.036,-4.842 -6.832,-1.509 -5.213,4.577 -13.2,6.486 -15.507,3.706 -0.973,-1.172 -0.69,-2.567 1.43,-7.048 2.498,-5.281 2.706,-9.49 0.468,-9.49 -0.514,0 -2.546,1.784 -4.516,3.964 -1.969,2.18 -6.356,5.37 -9.747,7.089 -5.2963,2.684 -7.4371,3.17 -15.1667,3.445 -4.95,0.177 -10.1755,0.777 -11.6122,1.334 -3.4096,1.323 -8.0338,-1.356 -9.8314,-5.696 -2.1146,-5.105 -0.9329,-6.388 5.19,-5.634 5.0909,0.627 5.362,0.533 8.7536,-3.024 1.925,-2.02 4.625,-4.17 6,-4.779 2.4967,-1.105 2.4956,-1.107 -0.8452,-1.473 -1.8399,-0.202 -5.1115,0.34 -7.2703,1.204 -2.3642,0.946 -6.9517,1.57 -11.5367,1.57 -5.9296,0 -8.3451,0.453 -10.9305,2.051 -3.0901,1.91 -3.5255,1.944 -6.3184,0.5 -4.537,-2.346 -6.7275,-1.904 -9.6667,1.949 -2.969,3.893 -5.8278,4.498 -7.397,1.566 -1.7202,-3.214 -1.1748,-7.396 1.4729,-11.293 3.2436,-4.773 5.3311,-13.334 3.6592,-15.006 -0.9159,-0.916 -1.8816,-0.776 -4.2289,0.61 -4.1031,2.424 -5.9384,1.524 -5.9384,-2.911 0,-5.141 1.2676,-6.9 7.5704,-10.506 8.1111,-4.641 8.3906,-7.908 0.6796,-7.945 -3.7121,-0.017 -4.194,-1.645 -1.641,-5.541 2.2938,-3.501 8.1616,-4.871 14.8836,-3.476 2.9463,0.612 8.2187,1.02 11.7164,0.907 3.4978,-0.114 7.2442,0.249 8.3253,0.805 1.0812,0.557 3.6069,1.264 5.6128,1.571 2.0058,0.308 5.9215,2.159 8.7014,4.112 3.7372,2.627 6.7985,3.832 11.7477,4.622 3.6814,0.588 7.4155,1.443 8.2985,1.9 0.883,0.456 3.751,1.141 6.373,1.521 2.622,0.38 6.839,1.608 9.371,2.728 3.665,1.622 6.187,1.965 12.371,1.684 6.797,-0.309 8.095,-0.68 10.389,-2.974 1.914,-1.914 3.972,-2.751 7.622,-3.102 2.75,-0.264 5.818,-1.221 6.818,-2.126 1,-0.905 3.156,-1.646 4.79,-1.646 1.634,0 3.399,-0.406 3.921,-0.903 0.523,-0.497 1.847,-1.065 2.943,-1.262 1.306,-0.236 2.17,-1.386 2.509,-3.344 0.486,-2.808 0.866,-3.028 6.407,-3.721 6.779,-0.846 9.932,-2.595 12.044,-6.679 1.987,-3.841 0.245,-5.358 -5.644,-4.915 -3.779,0.284 -4.347,0.058 -4.618,-1.844 -0.185,-1.299 0.818,-3.409 2.5,-5.262 2.383,-2.624 3.759,-3.189 9.059,-3.724 3.438,-0.347 6.25,-0.929 6.25,-1.293 0,-0.365 -3.456,-1.244 -7.681,-1.954 -7.61,-1.278 -10.718,-2.61 -15.069,-6.458 -3.222,-2.85 -2.975,-6.435 0.5,-7.241 3.428,-0.795 7.25,-3.127 7.25,-4.423 0,-1.851 -8.978,-1.03 -13.29,1.215 -3.189,1.661 -5.992,2.201 -11.557,2.227 -7.218,0.035 -7.408,-0.03 -10.75,-3.677 -3.732,-4.072 -4.274,-6.774 -1.775,-8.848 1.414,-1.173 1.982,-0.927 4.323,1.878 3.636,4.355 8.359,4.444 13.148,0.248 1.871,-1.639 4.922,-4.254 6.78,-5.81 2.84,-2.378 3.457,-3.653 3.875,-8.003 0.61,-6.346 -1.246,-7.698 -5.872,-4.277 -3.795,2.805 -5.751,2.388 -8.597,-1.835 -2.51,-3.724 -2.947,-8.895 -1.182,-13.96 0.876,-2.514 0.774,-3.987 -0.5,-7.17 -0.881,-2.203 -1.609,-5.684 -1.616,-7.735 -0.008,-2.052 -0.299,-4.794 -0.647,-6.094 -0.577,-2.156 -1.037,-2.318 -5.236,-1.844 -3.84,0.432 -5.189,1.197 -8.131,4.613 -1.94,2.252 -4.202,4.095 -5.027,4.095 -4.082,0 -9.946,-8.028 -9.946,-13.616 0,-1.482 1.125,-4.17 2.5,-5.973 3.1,-4.064 3.186,-6.978 0.25,-8.531 -1.237,-0.655 -4.071,-2.676 -6.298,-4.491 -3.218,-2.622 -5.371,-3.462 -10.5,-4.094 -5.434,-0.67 -6.498,-1.119 -6.746,-2.85 -0.573,-4.009 3.233,-5.937 11.897,-6.026 4.34,-0.044 8.157,-0.346 8.482,-0.67 0.324,-0.324 -2.818,-3.826 -6.982,-7.781 -7.947,-7.55 -9.552,-10.626 -9.633,-18.468 -0.022,-2.2 -0.684,-5.125 -1.47,-6.5 -2.553,-4.466 -1.89,-9.604 1.753,-13.578 3.989,-4.354 6.261,-3.866 7.124,1.53 0.487,3.045 1.142,3.961 3.203,4.479 5.146,1.291 6.075,0.178 6.777,-8.125 l 0.647,-7.651 -7.002,-7.221 c -7.571,-7.808 -7.48,-7.551 -7.016,-19.9074 0.218,-5.8033 0.115,-6.0647 -3.598,-9.1818 -3.771,-3.1666 -3.797,-3.2354 -1.949,-5.2766 2.523,-2.7888 7.126,-2.634 12.061,0.4057 2.2,1.3551 4.746,2.4777 5.657,2.4949 2.061,0.0388 9.843,-9.0953 9.843,-11.5528 0,-0.9936 -1.193,-3.0524 -2.652,-4.5751 -2.215,-2.3122 -2.442,-3.0218 -1.378,-4.3047 2.908,-3.5032 8.736,-0.7324 11.54,5.4858 1.612,3.5748 2.184,3.9949 5.642,4.1447 2.117,0.0917 4.636,0.2042 5.598,0.25 1.154,0.0549 1.691,-0.5843 1.577,-1.8751 -0.447,-5.0344 3.336,-6.9856 7.306,-3.7693 3.605,2.92 4.448,5.519 2.812,8.6723 -2.004,3.8625 -1.825,5.8745 1.064,11.9832 4.603,9.7284 5.236,16.8982 4.614,52.2582 l -0.302,17.186 4.997,6.005 c 2.749,3.303 5.305,7.404 5.68,9.114 0.437,1.99 1.901,3.901 4.066,5.309 1.86,1.21 3.893,3.423 4.517,4.917 0.624,1.494 1.787,3.258 2.585,3.921 0.798,0.662 3.72,4.486 6.493,8.497 2.773,4.012 5.914,7.571 6.979,7.909 1.066,0.338 3.061,2.395 4.435,4.572 1.374,2.176 3.998,5.628 5.83,7.671 1.833,2.042 3.638,4.698 4.012,5.901 0.375,1.204 2.17,3.496 3.99,5.094 2.916,2.56 4.43,2.964 8.622,2.301 0.29,-0.045 2.881,-1.852 5.759,-4.014 8.772,-6.591 24.068,-7.953 33.588,-2.991 5.12,2.668 10.346,2.136 15.173,-1.546 3.775,-2.879 7.903,-9.917 7.078,-12.067 -0.851,-2.218 -6.86,-3.26 -16.712,-2.898 -11.154,0.41 -12.318,-0.205 -11.342,-5.988 0.676,-4.006 5.242,-14.443 7.517,-17.185 1.793,-2.161 -9.164,-1.815 -18.711,0.591 -10.257,2.584 -17.776,2.559 -24.677,-0.081 -10.867,-4.159 -15.736,-10.931 -14.209,-19.767 0.855,-4.948 2.122,-6.39 8.518,-9.701 9.597,-4.967 21.991,-3.504 21.991,2.597 0,0.947 -0.675,2.282 -1.5,2.967 -0.858,0.713 -1.5,2.893 -1.5,5.099 0,4.35 2.039,6.23 8,7.379 1.925,0.371 5.394,1.369 7.708,2.218 2.651,0.972 5.426,1.293 7.5,0.866 6.994,-1.438 16.591,-2.59 23.492,-2.821 8.761,-0.293 10.569,-1.564 7.697,-5.411 -3.961,-5.306 -5.024,-5.303 -10,0.023 -3.733,3.995 -5,4.765 -7.165,4.351 -1.447,-0.277 -3.621,-0.126 -4.832,0.334 -1.594,0.606 -2.61,0.371 -3.678,-0.85 -2.148,-2.457 -4.762,-13.46 -5.418,-22.805 -0.517,-7.373 -0.373,-8.313 1.564,-10.25 1.173,-1.173 3.241,-2.133 4.595,-2.133 1.355,0 4.747,-0.9 7.537,-2 3.596,-1.417 7.432,-2 13.169,-2 9.305,0 12.398,-1.389 17.65,-7.924 4.311,-5.365 8.995,-6.644 18.921,-5.168 9,1.339 29.231,1.434 32.599,0.153 2.968,-1.128 6.525,-4.722 7.733,-7.811 1.062,-2.72 4.014,-2.918 6.273,-0.421 1.131,1.249 1.655,3.626 1.655,7.5 0,5.004 0.235,5.671 2,5.671 1.1,0 2.726,-0.849 3.614,-1.886 6.451,-7.542 6.338,-7.468 8.497,-5.514 1.633,1.478 1.874,2.544 1.327,5.853 -0.369,2.226 -1.109,4.883 -1.646,5.904 -0.655,1.245 -0.622,2.212 0.098,2.933 0.766,0.766 2.41,0.116 5.728,-2.267 3.597,-2.583 5.02,-3.107 6.268,-2.309 1.695,1.085 2.05,5.245 0.767,8.983 -0.596,1.738 -0.083,2.783 2.457,5 1.765,1.542 6.592,6.083 10.725,10.092 7.035,6.823 7.408,7.397 5.837,8.968 -1.197,1.197 -3.109,1.615 -6.675,1.46 -3.031,-0.132 -4.997,0.206 -4.997,0.857 0,1.623 10.554,15.245 12.927,16.684 1.14,0.693 2.073,1.905 2.073,2.694 0,1.9 -3.879,4.548 -6.663,4.548 -1.22,0 -2.473,0.411 -2.783,0.913 -0.932,1.509 3.006,16.285 5.821,21.84 3.875,7.647 3.471,8.921 -2.632,8.298 -3.381,-0.345 -3.153,2.94 0.471,6.77 5.332,5.633 8.476,10.374 9.066,13.668 1.099,6.144 -4.976,17.511 -9.36,17.511 -2.014,0 -2.92,-1.968 -2.92,-6.342 0,-2.37 -1.047,-4.258 -4.115,-7.418 -6.088,-6.273 -9.519,-5.389 -4.529,1.166 1.296,1.702 3.358,5.062 4.583,7.466 2.14,4.202 2.181,4.779 1.046,14.761 -0.649,5.713 -1.024,13.646 -0.832,17.627 l 0.347,7.24 -4.31,-0.091 c -3.867,-0.081 -4.92,-0.694 -10.25,-5.968 -5.74,-5.681 -5.94,-5.785 -5.94,-3.11 0,1.523 0.623,3.983 1.384,5.469 1.364,2.663 1.362,4.482 -0.029,20.445 -0.566,6.507 0.062,9.299 3.545,15.745 0.443,0.819 3.232,2.415 6.198,3.547 6.138,2.343 7.115,4.364 3.489,7.216 -3.796,2.986 -11.565,3.671 -18.137,1.6 -3.793,-1.196 -5.796,-1.407 -6.517,-0.686 -1.335,1.336 0.857,10.435 4.657,19.333 1.849,4.33 2.799,8.336 2.843,12 0.069,5.643 -1.269,8.629 -8.064,18 -3.433,4.735 -3.311,5.769 4.686,39.5 1.694,7.15 4.438,16.507 6.096,20.792 1.658,4.286 3.817,10.598 4.797,14.026 0.981,3.429 2.776,8.181 3.99,10.56 1.214,2.38 3.312,7.616 4.662,11.636 1.351,4.02 4.243,10.561 6.428,14.536 2.185,3.975 3.972,7.506 3.972,7.846 0,0.341 1.145,2.77 2.544,5.398 2.712,5.095 5.875,14.64 7.027,21.206 1.674,9.54 7.513,16.482 17.929,21.318 15.376,7.139 33.084,6.891 48.795,-0.683 16.906,-8.151 20.269,-13.973 17.164,-29.713 -0.541,-2.74 -4.36,-6.781 -8.571,-9.069 -3.45,-1.874 -12.915,-2.246 -33.888,-1.329 -8.387,0.366 -12.23,-0.874 -18,-5.807 l -3.5,-2.993 -0.33,-11.963 c -0.313,-11.343 -0.21,-12.1 2,-14.611 2.697,-3.065 3.258,-2.808 7.784,3.575 3.972,5.603 9.858,8.381 15.788,7.452 2.067,-0.324 6.458,-1.017 9.758,-1.54 6.892,-1.092 14.553,-5.042 16.987,-8.757 2.218,-3.384 1.353,-3.977 -3.478,-2.383 -3.57,1.178 -4.212,1.129 -5.967,-0.46 -1.839,-1.664 -1.869,-2.016 -0.46,-5.408 2.181,-5.253 12.006,-14.826 16.872,-16.441 5.774,-1.915 5.761,-4.485 -0.085,-16.442 -7.062,-14.446 -7.721,-15.239 -12.687,-15.281 -2.3,-0.02 -5.307,-0.679 -6.682,-1.465 -3.502,-2.002 -7.986,-1.826 -11.437,0.45 -1.616,1.065 -3.303,1.71 -3.75,1.434 -1.342,-0.829 -0.92,-3.607 0.842,-5.555 1.543,-1.705 1.532,-1.965 -0.155,-3.829 -1.334,-1.474 -3.08,-2 -6.639,-2 -6.55,0 -10.278,3.398 -12.067,11 -1.139,4.843 -1.59,5.5 -3.777,5.5 -2.11,0 -2.591,-0.601 -3.203,-4 -1.243,-6.903 0.895,-13.347 6.331,-19.082 3.573,-3.769 3.047,-5.77 -2.228,-8.461 -8.054,-4.108 -18.89,-0.908 -20.414,6.03 -0.807,3.674 -3.693,5.517 -6.385,4.076 -2.552,-1.366 -3.118,-3.203 -3.118,-10.129 0,-10.913 7.878,-23.149 18.5,-28.737 4.137,-2.176 6.467,-2.66 13.5,-2.804 9.771,-0.2 10.36,-0.808 7.059,-7.278 -1.132,-2.219 -2.059,-5.072 -2.059,-6.34 0,-1.268 -0.837,-3.873 -1.861,-5.79 -3.099,-5.803 -8.834,-23.927 -10.596,-33.485 -0.912,-4.95 -2.307,-11.219 -3.101,-13.931 -1.018,-3.484 -1.442,-10.185 -1.442,-22.819 0,-15.5 0.32,-19.18 2.392,-27.569 1.316,-5.324 2.677,-11.628 3.024,-14.007 0.586,-4.011 1.779,-6.605 9.644,-20.972 1.595,-2.913 4.37,-6.513 6.167,-8 1.796,-1.486 5.534,-4.968 8.306,-7.736 2.771,-2.769 6.793,-5.867 8.936,-6.884 2.142,-1.017 6.108,-3.153 8.811,-4.747 10.97,-6.468 15.927,-7.792 30.113,-8.042 10.974,-0.194 13.677,0.062 16.607,1.571 1.925,0.991 4.563,2.007 5.862,2.259 1.299,0.251 4.547,1.564 7.217,2.917 6.077,3.079 7.8,3.07 16.996,-0.096 4.084,-1.406 9.309,-2.568 11.611,-2.583 7.595,-0.05 14.024,-5.497 16.737,-14.181 0.978,-3.133 4.896,-1.694 6.316,2.32 2.705,7.647 -1.538,17.055 -10.147,22.497 -2.525,1.596 -4.592,3.256 -4.592,3.688 0,0.432 2.781,2.19 6.18,3.906 5.41,2.731 6.964,3.069 12.478,2.718 4.465,-0.284 7.167,-1.043 9.28,-2.605 3.464,-2.561 5.348,-2.77 7.002,-0.776 0.953,1.148 0.494,2.194 -2.342,5.332 -1.94,2.148 -5.343,4.723 -7.563,5.724 -2.219,1.001 -4.035,2.113 -4.035,2.472 0,0.979 6.196,6.648 8.625,7.892 2.31,1.183 11.752,0.091 15.209,-1.759 1.059,-0.567 3.297,-2.731 4.975,-4.81 2.407,-2.983 3.31,-3.523 4.288,-2.561 2.545,2.501 -3.343,15.432 -8.593,18.872 -3.335,2.185 -3.161,3.771 0.965,8.806 4.043,4.934 6.994,15.256 5.492,19.208 -1.305,3.431 -4.439,3.07 -5.997,-0.691 -1.233,-2.978 -7.585,-7.91 -10.194,-7.916 -2.14,-0.005 -13.77,5.244 -13.77,6.215 0,0.502 0.733,3.153 1.629,5.892 1.144,3.497 1.49,7.146 1.162,12.254 -0.632,9.842 -3.633,15.793 -9.724,19.283 -2.512,1.439 -6.225,4.197 -8.253,6.128 -2.956,2.816 -4.69,3.609 -8.75,3.999 -4.44,0.427 -5.064,0.258 -5.064,-1.369 0,-1.02 1.8,-3.501 4,-5.512 3.816,-3.487 3.998,-3.927 3.946,-9.521 -0.047,-5.074 -0.553,-6.597 -3.75,-11.276 -6.586,-9.64 -9.153,-9.306 -9.18,1.193 -0.02,7.441 -3.155,13.767 -11.004,22.204 -6.624,7.121 -8.149,11.074 -7.361,19.091 0.483,4.927 0.35,5.422 -1.461,5.422 -1.095,0 -4.026,-2.063 -6.511,-4.584 -5.625,-5.706 -7.228,-11.358 -6.327,-22.319 0.343,-4.178 0.907,-8.609 1.253,-9.847 0.595,-2.13 0.343,-2.251 -4.738,-2.272 -6.956,-0.028 -12.671,-2.68 -16.676,-7.738 -2.737,-3.454 -3.191,-4.833 -3.191,-9.684 0,-6.683 1.944,-10.958 5.917,-13.013 3.709,-1.918 5.119,-0.442 4.434,4.644 -1.042,7.729 7.41,10.596 14.05,4.766 5.118,-4.493 7.011,-10.329 6.319,-19.48 -0.534,-7.053 -1.027,-8.405 -5.612,-15.388 -0.737,-1.122 -2.209,-0.256 -7.125,4.193 -9.761,8.833 -18.112,10.738 -27.637,6.303 -7.861,-3.661 -8.712,-9.375 -1.217,-8.176 4.289,0.685 9.954,-1.195 13.425,-4.456 3.507,-3.294 11.817,-23.31 11.272,-27.15 -0.493,-3.477 -6.512,-5.125 -15.979,-4.375 -12.651,1.003 -21.109,5.211 -32.526,16.183 -6.599,6.342 -7.614,7.895 -12.691,19.416 -3.035,6.887 -6.315,16.112 -7.289,20.5 -3.397,15.309 -1.715,49.431 3.104,62.977 0.783,2.2 2.362,7.228 3.509,11.173 1.147,3.946 2.749,8.446 3.56,10 0.811,1.555 1.477,3.81 1.48,5.012 0.004,1.202 0.445,3.339 0.982,4.75 1.466,3.858 4.547,3.281 7.505,-1.405 3.454,-5.471 14.004,-13.689 19.898,-15.5 2.683,-0.824 5.383,-1.895 6,-2.38 2.123,-1.669 7.107,-1.961 11.11,-0.652 2.206,0.721 6.681,2.066 9.944,2.988 4.665,1.318 6.874,2.674 10.333,6.345 5.68,6.027 7.296,9.86 7.369,17.477 0.095,10.072 -5.793,22.692 -10.588,22.692 -3.643,0 -4.012,-1.708 -1.257,-5.809 3.359,-4.999 4.063,-8.613 2.327,-11.95 -2.667,-5.124 -10.077,-10.245 -14.817,-10.237 -2.532,0.004 -8.307,3.18 -11.065,6.085 -6.952,7.325 -4.136,22.476 5.284,28.423 l 3.909,2.468 -2.343,4.76 c -1.289,2.618 -2.899,7.798 -3.577,11.512 -1.037,5.667 -1.006,7.114 0.191,9 0.784,1.236 2.667,5.698 4.184,9.914 1.517,4.216 4.089,9.763 5.715,12.327 1.626,2.564 3.428,6.861 4.005,9.548 1.433,6.683 4.635,11.06 9.935,13.582 6.018,2.862 12.659,9.503 15.025,15.024 1.069,2.492 4.588,7.304 7.821,10.693 7.73,8.1 11.094,14.829 11.189,22.377 0.04,3.181 0.421,8.232 0.846,11.224 0.76,5.36 0.716,5.496 -2.939,9.079 -2.042,2.001 -4.281,5.403 -4.976,7.559 -1.75,5.426 -2.522,6.164 -7.298,6.971 -2.299,0.388 -5.985,1.358 -8.192,2.154 -2.208,0.797 -6.798,1.42 -10.201,1.385 l -6.188,-0.063 -3.062,4.537 c -1.685,2.495 -3.063,4.789 -3.063,5.097 0,0.308 -4.299,4.817 -9.553,10.02 -8.148,8.069 -10.832,10.049 -18.25,13.466 -7.633,3.515 -10.134,4.141 -20.444,5.115 -16.572,1.567 -31.524,-0.016 -38.354,-4.059 -2.694,-1.594 -7.667,-4.542 -11.049,-6.551 -3.383,-2.008 -6.624,-3.651 -7.202,-3.651 -0.578,0 -3.21,3.215 -5.849,7.144 -8.909,13.263 -9.38,14.186 -8.818,17.261 0.708,3.874 1.804,5.039 7.07,7.514 4.53,2.129 4.802,2.676 3.526,7.081 -0.424,1.462 -0.132,4.274 0.702,6.774 1.618,4.85 0.952,9.226 -1.403,9.226 -0.873,0 -2.924,-1.125 -4.558,-2.5 -2.019,-1.699 -4.179,-2.5 -6.739,-2.5 -5.194,0 -7.079,2.342 -7.079,8.794 0,4.335 0.492,5.696 3.149,8.722 4.938,5.624 7.95,6.739 17.125,6.335 10.55,-0.464 11.46,0.716 6.106,7.92 -2.118,2.85 -5.094,5.697 -6.615,6.327 -5.035,2.085 -3.084,5.211 3.98,6.376 2.335,0.385 4.491,1.099 4.792,1.586 0.301,0.487 2.441,1.386 4.756,1.997 7.826,2.068 13.179,9.647 9.166,12.978 -1.278,1.06 -2.032,0.918 -4.4,-0.834 -4.223,-3.121 -7.647,-3.701 -10.566,-1.788 -2.466,1.616 -3.075,3.906 -1.872,7.04 0.983,2.561 8.325,5.755 15.05,6.546 5.573,0.656 6.766,1.243 12.295,6.053 7.009,6.096 7.483,8.475 2.215,11.106 -4.086,2.04 -7.181,4.765 -7.181,6.323 0,0.644 1.161,2.261 2.58,3.595 2.229,2.094 3.736,2.472 11.072,2.78 9.161,0.383 10.439,1.204 8.279,5.316 -2.043,3.888 -9.033,11.828 -10.413,11.828 -2.856,0 -5.537,3.613 -6.49,8.744 -1.038,5.592 -3.265,9.777 -5.973,11.227 -2.562,1.371 -3.96,-0.142 -4.931,-5.336 -0.488,-2.615 -1.919,-5.853 -3.18,-7.195 -2.852,-3.036 -7.535,-3.304 -8.43,-0.484 -0.808,2.546 0.334,8.943 2.099,11.759 2.921,4.663 0.957,14.921 -3.835,20.021 -3.395,3.614 -6.135,2.907 -10.202,-2.633 -3.045,-4.148 -5.326,-6.103 -7.122,-6.103 -0.211,0 -0.863,0.896 -1.449,1.991 -0.8,1.495 -0.684,2.728 0.465,4.95 2.944,5.693 1.356,11.699 -5.419,20.509 -2.136,2.777 -4.456,6.4 -5.156,8.05 -1.755,4.14 -5.901,8.5 -8.082,8.5 -1.464,0 -1.815,-0.817 -1.825,-4.25 -0.006,-2.337 -0.656,-6.671 -1.443,-9.63 -1.26,-4.732 -1.249,-5.922 0.092,-9.87 1.799,-5.301 0.807,-7.229 -2.86,-5.557 -1.533,0.699 -3.334,3.611 -5.516,8.922 -4.484,10.916 -6.642,14.099 -10.708,15.799 -2.124,0.887 -4.801,3.346 -6.781,6.226 -1.799,2.619 -6.28,7.716 -9.958,11.328 -6.56,6.443 -6.675,6.646 -6.118,10.799 0.533,3.973 0.421,4.226 -1.814,4.117 -1.31,-0.064 -3.135,-0.315 -4.055,-0.559 z"
       inkscape:connector-curvature="0" /></g></svg>