<svg xmlns="http://www.w3.org/2000/svg" viewBox="0 0 471.12 478.12" style="fill:#000;" width="471px" height="478px"><title>targaryen</title><g id="Layer_2" data-name="Layer 2"><g id="Layer_1-2" data-name="Layer 1"><path d="M449.21,191.05c-4.41-6.3-9-14.5-9.45-19.19-.5-5.85,4.39-13.66,18.38-5.85,7,3.89,13,16.4,13,16.37-5.39-48.14-36-75.46-67.44-75.9C370,106,365.8,91.59,361,77c-4.67-14.13,4.95-32.53,4.95-32.53S351.42,58,346.7,75.91c-3,11.29-4.2,24.29,0,38.7,4.52,15.53,16.94,42.26,27.76,45.44,6.64,1.95,1.43-17.81,14.72-11,21.25,11,9.45,32.53-3.7,43.91-7.24,6.27-23.64,13.8-29,8.46-13.94-13.88-2.25-33.83-12.14-49.44-17.09-21.68-34.85-34.26-23.83-71.56,2.66-9,1.59-14,.22-22.12-1.63-9.7-9.75-15.78-12.14-17.56s-7.23-5.4-13-6.44c.75-.86,1.5-1.7,2.22-2.57a71.69,71.69,0,0,0,6-8.59,52.29,52.29,0,0,0,4.3-9.44c1.17-3.22,1.71-6.63,2.56-9.84-1.32,3.11-2.33,6.35-3.92,9.31a50.58,50.58,0,0,1-5.38,8.42,69.57,69.57,0,0,1-6.85,7.31,54.43,54.43,0,0,1-7.67,6.12l0,0a2.43,2.43,0,0,0-.32.24,1.27,1.27,0,0,0-.11.13c-1.8,1-3.13,2.52-8.11,4-6.6,2-11,1.41-12.82,4.55-1.11,1.94.27,2.72-.67,4.55-2.3,4.5-9.87,3.88-17.87,7.32a15.15,15.15,0,0,0-6.07,4.39A29.45,29.45,0,0,0,245,64.72a47.47,47.47,0,0,0-4.54,2.74,2.44,2.44,0,0,0-.57.54c-1.61,2-5.17,7.27-3.55,13.18,2,7.33,8.64,13.58,19,11a27.51,27.51,0,0,0,3.2-1h.06c3.05-1.06,5,0,5.85.75a4.85,4.85,0,0,1,1.19,1.64,4.13,4.13,0,0,1-1.17,4.81,13.12,13.12,0,0,1-4.84,2.69,15.24,15.24,0,0,0,6.21-.2,8.54,8.54,0,0,0,5-3.44,5.86,5.86,0,0,0,.78-1.37,7.85,7.85,0,0,0-.64-4.84,10,10,0,0,0-2.68-3.56,11,11,0,0,0-2-1.26c2.65-2.13,4.82-3.65,11.13-3.65a7,7,0,0,1,6.18,3,6.36,6.36,0,0,1,.34,5.92c-.05.11,0,.22-.12.33a6,6,0,0,1-1.47,1.57,10.61,10.61,0,0,1-4.71,1.91,12.36,12.36,0,0,0,5.72.74,10.48,10.48,0,0,0,3.16-.88,5.76,5.76,0,0,0,1.71-1.19,7.69,7.69,0,0,0,2-3.61,10.84,10.84,0,0,0-1.71-7.81,12.91,12.91,0,0,0-11.12-5.57c-8.75,0-12.08,2.69-15.29,5.29a20.48,20.48,0,0,1-5.47,3.47h0a20,20,0,0,1-2.73.88c-8.69,2.14-11.29-4.82-11.89-7-.9-3.27,1.25-6.62,2.27-8,.58-.39,2-1.27,4-2.3,1,2.37,2.16,3.53,3.09,3.83,2.68.89,6.06-4.3,10.62-7,6.45-3.8,7.62.94,15-2.44s8.56-8.08,13.49-7.81c3.66.21,6.24,3,7.08,3.91,6.68,7.23,8.38,20.67,1.68,29.92-7.93,11-12,23.53-7.93,41.75,3.69,16.34,32,34.26,10,48.25-4.63,2.93-28.59-32.92-35.52-47.82-6.32-13.59-20.68-10.3-38.22-55.51-4-10.31-1-12-8.09-25.16-3.87-7.19-9.09-16.55-19.78-19.95a31,31,0,0,0-6.37-1.3,57.13,57.13,0,0,0,7.92-9.51A58.45,58.45,0,0,0,209.9,0a57.65,57.65,0,0,1-11.14,19A56,56,0,0,1,184.15,30.9a21.31,21.31,0,0,0-2.34.77c-4.79,2-4.16,2-9.28,3.9-7.62,2.82-7.39,2.57-13.14,4.41-3.25,1-1.78,6.71-4.9,8.28s-5.87,1.15-13.15,2.93c-5.36,1.31-11.46,6.18-11.46,6.18a10.64,10.64,0,0,0,5,5.32,42.67,42.67,0,0,0-5.23,4l-.49.42a20.78,20.78,0,0,0-6.7,12.69,18.08,18.08,0,0,0,1,7.72,8,8,0,0,1,.38,5.26A6,6,0,0,1,120,96.88a7.17,7.17,0,0,1-6.41-.95,7,7,0,0,1-2.91-6.13c0-.6.32-2.84.44-3.42a8.57,8.57,0,0,1,3-4.62,11.31,11.31,0,0,0-7,2.64,8.55,8.55,0,0,0-2.36,5.36,12.87,12.87,0,0,0,5.46,10.79,13.42,13.42,0,0,0,7.52,2.35,12.76,12.76,0,0,0,4.26-.73,11.69,11.69,0,0,0,7.5-8,11.84,11.84,0,0,0,.28-1.55,21.57,21.57,0,0,0,10.34,3.07c8.75.62,15.9-3.64,22.16-7.4,4.43-2.67,8.61-5.18,12.82-5.7,3.32-.41,11.41-.83,14.68,4.22a11.47,11.47,0,0,1,1.2,8.78,7,7,0,0,1-3.18,4.5,12.45,12.45,0,0,1-5.74,1.14,6.19,6.19,0,0,1-3.83-2.37,8,8,0,0,1-1.48-5.41,9.42,9.42,0,0,0-1.24,6.46c.35,2,3,6.64,7,6.64h1.78a13.67,13.67,0,0,0,6.37-1.52,12.51,12.51,0,0,0,6-8,16.86,16.86,0,0,0-1.9-13.17C189.69,76,178.81,76.46,174.36,77c-5.48.68-10.41,3.64-15.17,6.51-6,3.62-11.62,7-18.65,6.57-7.71-.55-10.45-3.76-12.27-8.76a9.47,9.47,0,0,1,0-1,15.18,15.18,0,0,1,4.76-9l.51-.44a31,31,0,0,1,6.22-4.45c0,2.11.27,4.49.88,4.95,1.36,1.05,3.89-.36,9.78-2.92,5.72-2.49,8.57-3.74,11.13-4.23,5.72-1.11,6.26,1,11.46.32,8.86-1.16,10.82-7.79,16.86-7.15,3.8.4,6.29,3.37,9.11,6.83,6.78,8.34,8.62,17.18,9.44,20.81,2.81,12.61,8,38.11,15.17,56.6,12.81,33.18,39.43,43.8,37.43,46.19-1.68,2-18.86-1.66-29.56-10.19-16-12.77-15.39-22.7-30.57-40.34-7.72-9-17.27-20.05-33.27-26.45-10.92-4.37-24.22-4.07-50.81-3.47-26.17.59-31.89,3.33-35.52,5.64-3.94,2.51-5.87,8-20.16,20.47a87.7,87.7,0,0,0-13.81-33.25,84.26,84.26,0,0,1,9,40,21.87,21.87,0,0,0-1.52,8c2.91,4.88,4.26,3.42,5,6.72,1.3,5.47-5.78,11.49-5,29.74,0,0,7.45-1.58,8-2l1.25-.42c0,1.76.15,3.52.34,5.26a77,77,0,0,0,2.65,13c1.34,4.81,2.38,8.6,1.84,14.71-.45,5-1,11.24-5.81,15.5-3.7,3.29-11.44,6.84-17.61,3.15-5.67-3.4-7-10.65-5.1-15.71,1.4-3.62,4.86-7.66,9.81-7.28,0,0,5.69.45,9.14,3.62a10.86,10.86,0,0,0-1.29-4.62A10.18,10.18,0,0,0,55.74,207a19,19,0,0,0-4.87-1.84l-.1,0c-8.19-.69-13.69,5.45-15.8,10.93a18.61,18.61,0,0,0,7.49,22.46,17.25,17.25,0,0,0,9,2.43,24.52,24.52,0,0,0,15.68-6.22c6.47-5.74,7.16-13.5,7.67-19.18a39.46,39.46,0,0,0,.14-4.65c5.32,7.25,11.2,12.26,15.14,14.27,5.5,2.82,11.69,2.62,17.72,2.4,9.66-.33,18-.62,24.53,9.8,3.66,5.81.42,13.86-4.49,18.48-5.17,4.89-13.06,4.14-18.53,1.24-.07,0-6.47-4.27-5.85-10.84,0-.05.18-1.65.2-3.34a10.37,10.37,0,0,1,1.73-6.13,13.57,13.57,0,0,0-6.25,4.83,14.73,14.73,0,0,0-1.48,4,.24.24,0,0,0,0,.08c-.87,9.16,6.87,15.27,8.82,16.29a25.36,25.36,0,0,0,11.8,3,19.69,19.69,0,0,0,13.67-5.15c6.68-6.29,10.67-17.05,5.4-25.43C129,221.23,117.67,221.62,107.58,222c-5.47.18-10.65.36-14.77-1.75-5.09-2.61-17.18-13.55-22.15-30.73-.14-.85-.27-1.7-.37-2.64a63.38,63.38,0,0,1-.31-6.64l.44-.15c1.68,1.19,4.16,2.32,5.4-.23.88-1.83.53-4.6.89-10.41.18-2.75.82-13,6.75-16,2.63-1.33,3.42.24,7-1.08a15.78,15.78,0,0,0,9.44-11.06c.88-4.23-1-6,.67-8.46a19,19,0,0,1,14.17-7.47c26.61-1,39.9-1.25,45.07,2.43,4.32,3.09,10.41,10.41,15.62,21.36,9.56,20.11,4.45,30.7,11.8,42,2.7,4.13,4.55,9.6,10.26,17.92h0c-4.56.48-12.19,1.84-16.77,3.77-5.9,2.48-8.35,6-11.24,5.2s-3.73-5.61-4.49-8.67c-4-16.08-15.18-15.27-20.68-30.8-4.66-13.12-.59-24.83-6.3-26.88-2.39-.87-3.59-.55-6.05-2.91-3.75-3.59-3.85-5.81-7.4-6.22a7.48,7.48,0,0,0-3,.4,8.45,8.45,0,0,0-1.87,1c-.84.6-1.45,1.11-2.07,1.62l-3.61,3-3.66,2.89-1.85,1.39a8.7,8.7,0,0,0-2.28,2.1c-2.34,3.35-2.25,6.95-1.88,10.1a37.33,37.33,0,0,0,2.61,9.06,36.4,36.4,0,0,1-.42-9.11c.28-2.9,1.22-5.84,3-7.31.55-.47.55-.34,1.43-.75l2.24-1,4.39-2.09,3.84-1.92a1.9,1.9,0,0,1,.88.55,2.11,2.11,0,0,1,.42,1.37c-.1.12-.26.16-.35.29a15.36,15.36,0,0,1-3.85,3.37,47,47,0,0,1-5.17,2.95l-.74.37a1.62,1.62,0,0,0-.89,1.15,21,21,0,0,0-.37,4.64,23.19,23.19,0,0,0,.5,4.41,20.28,20.28,0,0,0,3.41,7.88,18.78,18.78,0,0,1-.9-8,20.53,20.53,0,0,1,1.52-6,54.07,54.07,0,0,0,5.63-1.34c1.06-.35,2.14-.74,3.23-1.22.66,0,1.3.12,1.46.62a2,2,0,0,1-.26,1.44,9.9,9.9,0,0,0-2.36,1.34,10.49,10.49,0,0,0-3.25,4.23,8.6,8.6,0,0,0,1.91,9c-1.2-2.71-1-5.85.65-7.63a7.19,7.19,0,0,1,3-2,2.49,2.49,0,0,1,1.38-.25,7.34,7.34,0,0,0,1.91.32v0c1.49,1.07,1.51,4.56,2.49,10.06a44,44,0,0,0,4,10.41c2.42,16.16,6.44,25.32,9.89,30.79,3.18,5,6.48,7.91,9,15.18,1.36,3.95,1.66,6.78,4,7.81,3,1.29,5-2.15,11.69-3.47,6.19-1.23,8.13,1,13.94-.43,4-1,9.68-3,11.39-4.34l0,0c-1,1.78-1.91,3.59-2.81,5.47-5,10.39-7.85,25.63-8.61,26.24-5.16,4.14-17.95,2.58-27.2,2.82-25.75.65-27.2,10.41-50.58,7.59-6.29-.76-11.58-3.67-14.84-8.68-2-3.1-2.42-6.34-4.94-6.94-2.29-.54-3.39,1.81-7.65,3.91-7.14,3.52-11,.33-14.83,3.9-1.12,1-2.09,3.44-4,8.24-1.44,3.55-2.16,5.33-2.25,6.94-.07,1.42,0,5.74,5.4,10.84,0,0-1.87-8.35-.05-11.08a12.38,12.38,0,0,1,5.21-4.76,50.44,50.44,0,0,0,5.18-3.67,11.68,11.68,0,0,1-1.12,5.85c-1.29,2.6-2.73,2.83-3.38,5-1,3.23,1.17,6.42,1.8,7.37a12.6,12.6,0,0,0,6.3,4.77s-6-7.86-2.29-10.5c.36,2.73,1.33,6.12,6.48,8.21a30.35,30.35,0,0,0,6.82,1.64,55.88,55.88,0,0,1-4.72-4.12c-3.29-3.21-3.45-4.15-3.37-4.77.19-1.52,1.85-1.52,3.15-3.69,1.6-2.68.27-4.74,1.34-5.42,1.69-1.06,4.68,4.15,11.69,6.73,5,1.82,7.16.54,11.47,3.25a34.69,34.69,0,0,0,7.46,3.9c4,1.24,4.84-2.18,9.85-4.12,2.21-.86,13.32,6.55,29.67,4.34,8.92-1.21,21.81-5.86,32.37-4.12,3.8.62,3.86-5.12,6.52-9.54,4.29-7.11,10.08-8.65,15.29-12.58,5.39-4.07,12-17.14,14.61-33A41.13,41.13,0,0,0,237.11,249a16.65,16.65,0,0,1,5.81,4.45,26.66,26.66,0,0,1,3.62,6.42c1.72,4.53,2.88,9.07,4.37,13.41a90.2,90.2,0,0,0,12.52,24.25,66.18,66.18,0,0,0,9,10.26c3.29,3.22,7.14,6.12,10.56,9.71,7.14,7.08,11,16.33,13.27,25.39.69,1.82,3.58,1.68,4.5,1.74,7.83.52,19.24,5.85,22.48,10,6.19,7.9-2.94,30-19.34,39.9-1.73,1.06-19.16,11.33-33.72,5.64a59.68,59.68,0,0,0-8.09-2.17s-14.61,9.76-7.87,26.89c0,0,2.87-10.29,6.58-13.28a14.31,14.31,0,0,1,8.93-2.76c-3.71,2.16-6.07,6.94-4.72,13.87,0,0,2.77-5.83,5.63-7.92,3.14-2.3,5.3-2.31,5.3-2.31s-1.18,3.44-.74,5.64a6.16,6.16,0,0,0,2.63,3.79c.67-8.41,9.57-9.66,14.61-10.25,13-1.55,20.18,2.51,26.3-2.61,1-.82,3.35-4,8.09-10.41,2.17-2.92,4.16-5.69,4.72-6.5,7.8-11.27,2.5-24.18,9.45-41,4.38-10.6,10.38-14.87,8.09-18.21-3-4.39-14.58,1.2-20.91-5.2-3-3-3.21-7-3.37-9.76-.65-10.83,11.47-30.58,20.23-30.58,8,0,14.56,13.83,16.86,18.87,10.21,22.36,6.05,65.36-16.86,94.33-38.22,48.33-121.85,49-175.34,33.82-73-20.7-133.25-83.18-147.69-160-8.14-43.26-1-86.89,16.7-123.93,0,0,6.29-14,7.26-20.74s-2.16-17-2.16-17a216,216,0,0,0-35.93,188l-.19-.55A69.59,69.59,0,0,0,4.8,327.32a76.45,76.45,0,0,0,9.89,29.06,39.13,39.13,0,0,1-.45-13.88,37.48,37.48,0,0,1,4-12.52A222.43,222.43,0,0,0,66,398.81l-1-.89a70.15,70.15,0,0,0,10.85,29.22,67.77,67.77,0,0,0,19,18.62A32.1,32.1,0,0,1,88.27,431a27.73,27.73,0,0,1,.84-12.24l-.72-.63A234.69,234.69,0,0,0,225,465.44l-.65,0a74.58,74.58,0,0,0,30,11.89,70,70,0,0,0,29.63-2,40,40,0,0,1-20.35-4.73,33.61,33.61,0,0,1-8.25-6.32l-1.44.05a235.33,235.33,0,0,0,82.37-23.43v0a142.7,142.7,0,0,0,26-22.34c5.79-.12,17.36-1.16,26.67-7.32,12.28-8.13,16.19-21.69,16.19-21.69s-7.45,10.16-18.89,11.28a21.59,21.59,0,0,1-9.44-1.3l-.23.33A130.22,130.22,0,0,0,390.2,370.6c9.35-28.53,10.79-74.5-8.77-113.84-6.75-13.58-17.67-29.71-11.47-37.08,4.89-5.81,17.7-3,22.26-2,21.59,4.8,41.81,22.26,51.25,44.89,15.25,36.54-3.59,72.2-1,72.86s27.42-43.16,24.17-90.21C464.89,220.13,460.81,207.65,449.21,191.05Z" /><path d="M210.13,359.54c-4.69,4.47-3.44,12.8-7.46,17.89C188.78,395,153.45,385.8,151,385.35c-7.59-1.42-13.93-2.13-17.08-.22-2.72,1.65.91,14.36,1.79,19.3,0,0,5.37-4,3-11.88,5.71-2.71,22.15,4.56,22.15,4.56-3-.07-4.81-.38-11.15-.7-5.22-.27-7-.13-7.62,1s.83,3,1.68,6a16.31,16.31,0,0,1,.5,6,18,18,0,0,0,3.24-3.58,12,12,0,0,0,1.33-3.93l10.09,1s-4.26,2-3.17,5.29,5.78,6,5.78,6c-4.28-16.2,30.19-4.23,39.34-9.76,8.64-5.22,16.26-15.79,22-19.95s8-1.59,13.93-5.64c6.59-4.45,4.66-8,12.14-14.74,2.14-1.92,1.73-1.12,13.49-9.11,7.15-4.86,10.43-7.28,9.89-8.68-.69-1.8-6.91.35-9.89-3-1.16-1.32-.9-2.42-1.35-6.51-1-9.18-3-10.54-1.8-13.44.48-1.12,8.13-5.05,15-7.09-1.89-1.48-3.82-3-5.72-4.6a68.08,68.08,0,0,1-10-10.94,88,88,0,0,1-7.38-12.59,72.56,72.56,0,0,1-4.72-13.7c-.31-1.24-.51-2.47-.76-3.7-5.93,2.36-18.91,8.36-25.07,14.45-5,4.91-11.69,19.09-11.69,19.09s21.29,21,18,35.78C224.3,352.06,212.51,357.28,210.13,359.54Z" /><path d="M64.82,112.21s21.4-23.93,38.35-35.35,24.74-14.71,24.74-14.71l-4.51-6.58,21.14-18.94A231.37,231.37,0,0,0,59.7,93.74s3.41,7.41,3.9,10S64.82,112.21,64.82,112.21Z" /><path d="M246.48,36.63a94.64,94.64,0,0,1,13.59,1.55s8-1.58,12.06-4.4a48,48,0,0,0,8.12-8,239.57,239.57,0,0,0-49.61-5.16q-9,0-17.92.66l10.81,15.36S237.65,36.13,246.48,36.63Z" /><path d="M419,342.41c0-34.88,6.74-43.42,3.6-71.34-2.25-20-13.76-32.74-17.54-39.25a61.35,61.35,0,0,0-10.21-4.35A119.59,119.59,0,0,0,382.49,225s27.56,25.8,29.5,52.59-.66,51.52.81,67.53c4.22,45.91,30.71,50.31,38.09,69.07-3.22-8.2-7.54-13.2-11.46-17.57C427.4,383.22,419,367.13,419,342.41Z" /></g></g></svg>